<?xml version="1.0" encoding="utf-8"?>
<!-- Generator: Adobe Illustrator 28.0.0, SVG Export Plug-In . SVG Version: 6.00 Build 0)  -->
<svg version="1.1" id="Слой_1" xmlns="http://www.w3.org/2000/svg" xmlns:xlink="http://www.w3.org/1999/xlink" x="0px" y="0px"
	 viewBox="0 0 595.3 841.9" style="enable-background:new 0 0 595.3 841.9;" xml:space="preserve">
<style type="text/css">
	.st0{fill:#6D6D6C;stroke:#FFFFFF;stroke-width:11;stroke-miterlimit:10;}
	.st1{fill:#FFFFFF;stroke:#FFFFFF;stroke-width:45;stroke-miterlimit:10;}
	.st2{fill:#6D6D6C;}
</style>
<g>
	<circle class="st0" cx="297.6" cy="420.9" r="283.5"/>
	<path class="st1" d="M238.7,482.4h117.1c3.9,0,7.1-3.2,7.1-7.1V366.6c0-3.9-3.2-7.1-7.1-7.1H238.7c-3.9,0-7.1,3.2-7.1,7.1v108.7
		C231.6,479.2,234.8,482.4,238.7,482.4z"/>
	<path class="st2" d="M297.6,426.7l0-71.5c0-0.4-0.7-0.5-0.8-0.1l-8.1,54.2c0,0.1-8.4,9.7-8.5,9.7l-62,7.4c-0.5,0.1-0.4,0.8,0.1,0.8
		l78.8,0C297.5,427.1,297.6,426.9,297.6,426.7z"/>
	<path class="st2" d="M297.6,427.5v71.2c0,0.5,0.7,0.6,0.8,0.1l7.1-53.2c0-0.1,9-7.3,9.1-7.4l59.5-10.4c0.5-0.1,0.4-0.8-0.1-0.8
		h-75.9C297.8,427.1,297.6,427.2,297.6,427.5z"/>
	<path class="st2" d="M297.2,427.1l-78.7,0c-0.5,0-0.7,0.7-0.1,0.9l61.7,10c0.1,0,9.5,7.2,9.5,7.3l7.1,53.2c0.2,0.5,0.9,0.4,0.9-0.1
		l0-70.8C297.6,427.3,297.4,427.1,297.2,427.1z"/>
	<path class="st2" d="M298,427.1l76.2,0c0.4,0,0.4-0.5,0.1-0.6l-58.1-8.8c-0.1,0-10.9-10.2-10-8.8l-7.8-54.1
		c-0.1-0.3-0.6-0.3-0.6,0.1l0,71.9C297.6,426.9,297.8,427.1,298,427.1z"/>
</g>
</svg>
