<?xml version="1.0" encoding="utf-8"?>
<!-- Generator: Adobe Illustrator 28.0.0, SVG Export Plug-In . SVG Version: 6.00 Build 0)  -->
<svg version="1.1" id="Слой_1" xmlns="http://www.w3.org/2000/svg" xmlns:xlink="http://www.w3.org/1999/xlink" x="0px" y="0px"
	 viewBox="0 0 595.28 841.89" style="enable-background:new 0 0 595.28 841.89;" xml:space="preserve">
<style type="text/css">
	.st0{fill:#EEE972;stroke:#1D1D1B;stroke-width:0.25;stroke-miterlimit:10;}
	.st1{opacity:0.88;fill:#1D1D1B;stroke:#000000;stroke-width:0.5;stroke-miterlimit:10;}
	.st2{fill:#E62C27;stroke:#000000;stroke-width:0.5;stroke-miterlimit:10;}
	.st3{fill:#EFE400;stroke:#1D1D1B;stroke-width:0.25;stroke-miterlimit:10;}
	.st4{fill:#CDD61F;stroke:#000000;stroke-width:0.25;stroke-miterlimit:10;}
	.st5{fill:#CDD61F;stroke:#000000;stroke-width:0.5;stroke-miterlimit:10;}
	.st6{fill:none;stroke:#000000;stroke-width:0.5;stroke-miterlimit:10;}
	.st7{fill:#CDD61F;stroke:#000000;stroke-width:0.75;stroke-miterlimit:10;}
	.st8{fill:none;stroke:#000000;stroke-width:0.75;stroke-miterlimit:10;}
	.st9{fill:#FFFFFF;stroke:#000000;stroke-width:0.5;stroke-miterlimit:10;}
	.st10{fill:#1CA638;}
	.st11{fill:none;stroke:#1D1D1B;stroke-width:0.75;stroke-miterlimit:10;}
	.st12{fill:none;stroke:#000000;stroke-width:2;stroke-miterlimit:10;}
	.st13{fill:#26A1DC;stroke:#26A1DC;stroke-width:0.5;stroke-miterlimit:10;}
</style>
<path class="st0" d="M192.85,325.08h-1.62c0,0-3.45-1.23-4.06-1.58"/>
<g>
	<g>
		<rect x="214.25" y="396.49" class="st1" width="176.34" height="166.63"/>
		<polygon class="st2" points="182.13,244.82 191.97,248.07 200.45,251.31 213.17,257.16 208.79,247.82 235.06,257.48 232.52,251.1 
			262.46,275.97 260.02,268.86 271.18,282.56 269.56,275.97 279.97,288.41 284.84,293.09 289.03,297.3 299,305.37 310.13,307.13 
			310.13,309.94 327.98,309.94 321.48,313.45 336.9,312.04 344.2,307.13 347.45,297.3 351.1,300.46 351.1,291.68 355.16,288.52 
			355.16,277.29 362.46,280.98 373.01,266.76 386.8,260.09 379.9,267.81 409.92,253.42 402.22,262.9 429.4,248.5 454.96,239.38 
			442.38,253.77 439.95,262.19 431.83,266.06 435.89,267.81 428.99,272.73 435.89,272.38 422.91,283.26 410.06,299.29 
			414.79,298.35 430.34,299.05 414.39,303.97 406.81,307.6 411.95,307.83 397.75,313.45 388.02,322.57 375.85,331 386.39,328.54 
			364.08,336.62 426.96,376.28 413.17,376.28 407.49,376.28 398.57,376.28 392.48,376.75 385.07,376.58 372.6,376.28 371.38,369.96 
			369.63,366.34 366.52,361.89 356.78,362.94 350.29,361.89 347.85,376.28 343.8,373.83 342.99,381.2 334.47,376.28 334.06,381.2 
			337.71,384.01 339.74,388.92 334.47,388.92 330.41,388.92 329.6,397.7 311.34,397.7 308.5,392.08 309.31,384.36 316.82,381.2 
			321.48,380.14 323.11,374.53 320.47,374.79 321.48,364.35 314.59,362.94 310.53,370.32 308.1,367.51 305.66,375.58 299,372.77 
			299.4,389.62 292.28,387.87 288.62,391.73 289.84,397.7 280.61,397.7 268.34,397.7 267.12,391.03 271.18,379.44 278.89,377.34 
			286.19,373.83 284.57,359.43 290.25,349.96 286.6,342.23 282.13,334.51 275.64,332.4 264.69,332.4 259.01,335.21 259.01,340.13 
			251.3,343.99 251.3,349.25 249.07,352.8 248.19,354.28 243.47,358.15 244.81,352.06 246.36,348.14 239.94,354.17 238.83,359.7 
			233.11,354.28 232.3,349.19 232.62,345.38 231.57,337.32 233.25,331.13 240.09,323.45 241.16,327.61 245.22,318.54 236.7,308.88 
			235.48,313.1 228.99,305.37 224.42,298.79 218.85,292.38 210.87,283.37 		"/>
		<polygon class="st0" points="269.72,400.78 266.36,397.09 270.3,392.2 274.5,393.5 270.73,396.33 		"/>
		<polygon class="st0" points="276.7,401.4 273.34,397.72 277.28,392.82 281.48,394.12 277.71,396.96 		"/>
		<polygon class="st0" points="284.84,401.4 281.48,397.72 285.42,392.82 289.62,394.12 285.85,396.96 		"/>
		<polygon class="st0" points="312.04,401.98 308.68,398.3 312.62,393.41 316.82,394.71 313.05,397.54 		"/>
		<polygon class="st0" points="319.16,401.98 315.8,398.3 319.74,393.41 323.94,394.71 320.17,397.54 		"/>
		<polygon class="st0" points="325.25,402.69 321.89,399 325.83,394.11 330.03,395.41 326.26,398.24 		"/>
		<path class="st3" d="M239.31,360.66l-6.39-3.15l-0.62-8.32l0.29-3.53l19.33-1.26v4.96l-3.8,5.68l-5.44,4.12l1.45-7.31l0.38-1.05
			c0,0-3.73,3.38-3.93,3.62C240.3,354.75,239.31,360.66,239.31,360.66z"/>
		<polygon class="st4" points="239.95,338.87 241.75,333.01 241.75,333.01 236.87,338.74 		"/>
		<path class="st5" d="M321.79,363.95c0.25-0.88,6.95-23.7,6.95-23.7"/>
		<polyline class="st6" points="366.52,361.89 379.93,360.22 375.77,356.45 391.49,353.9 		"/>
		<line class="st6" x1="379" y1="375.93" x2="374.27" y2="360.93"/>
		<line class="st2" x1="379.99" y1="355.77" x2="387.4" y2="376.63"/>
		<line class="st2" x1="387.4" y1="354.57" x2="397.95" y2="376.63"/>
		<line class="st2" x1="412.56" y1="375.93" x2="391.06" y2="353.97"/>
		<path class="st2" d="M290.25,349.96l3.38,3.04c0,0,4.34,2.66,5.41,3.86c1.35,1.52,7.3,3.39,7.3,3.39l3.65,1.64l4.6,1.05"/>
		<line class="st2" x1="272.9" y1="398.4" x2="275.34" y2="387.34"/>
		<line class="st2" x1="284.16" y1="387.34" x2="280.61" y2="397.7"/>
		<line class="st2" x1="314.99" y1="397.11" x2="316.82" y2="388.83"/>
		<line class="st2" x1="321.79" y1="397.7" x2="325.26" y2="388.83"/>
		<polyline class="st2" points="245.22,318.54 266.36,305.37 255.79,317.31 275.34,309.12 261.85,324.56 285.55,320.12 
			263.46,333.01 		"/>
		<line class="st7" x1="442.24" y1="254.24" x2="400.49" y2="275.97"/>
		<line class="st7" x1="430.45" y1="276.22" x2="400.13" y2="290.48"/>
		<line class="st7" x1="410.06" y1="299.29" x2="383.69" y2="312.39"/>
		<line class="st7" x1="391.06" y1="319.19" x2="359.48" y2="329.71"/>
		<path class="st8" d="M351.78,333.01l10.82-10.2l5.41-5.85v4.21l15.69-21.41c0,0-0.14,6.32,0.94,6.08
			c1.08-0.23,17.17-22.49,17.17-22.49h-6.83l6.83-15.42l-9.26,1.52l-13.86,6.52l-9.47,7.38c0,0-8.59,13.33-9.74,15.94
			c-1.36,3.09-4.81,16.6-5.95,19.25c-1.08,2.51-11.9,11.17-11.9,11.17h-9.74"/>
		<path class="st8" d="M197.25,265.11h10.23l12.98,2.82c0,0,7.71,4.8,8.52,5.85c0.81,1.05,7.88,5.62,7.88,5.62l11.18,11.09
			l18.31,14.89"/>
		<polyline class="st8" points="217.63,275.97 225.34,290.48 234.67,299.29 255.08,312.39 		"/>
		<line class="st2" x1="213.17" y1="257.16" x2="226.09" y2="271.57"/>
		<path class="st2" d="M235.06,257.48"/>
		<line class="st2" x1="220.72" y1="252.21" x2="241.75" y2="283.35"/>
		<line class="st2" x1="235.06" y1="257.48" x2="248.06" y2="290.48"/>
		<line class="st2" x1="249.38" y1="265.11" x2="255.08" y2="296.2"/>
		<line class="st2" x1="262.46" y1="275.97" x2="266.36" y2="298"/>
		<line class="st2" x1="271.18" y1="282.56" x2="274.12" y2="300.47"/>
		<line class="st2" x1="281.48" y1="290.48" x2="284.16" y2="309.23"/>
	</g>
	<path class="st9" d="M235.13,550.55l141.92-122.8c1.64-1.42,1.64-3.72,0-5.14l-2.81-2.43c-1.64-1.42-4.3-1.42-5.94,0l-141.92,122.8
		c-1.64,1.42-1.64,3.72,0,5.14l2.81,2.43C230.83,551.97,233.49,551.97,235.13,550.55z"/>
	<path class="st9" d="M378.53,544.34L246.8,430.35c-1.64-1.42-4.3-1.42-5.94,0l-2.81,2.43c-1.64,1.42-1.64,3.72,0,5.14
		l131.73,113.99c1.64,1.42,4.3,1.42,5.94,0l2.81-2.43C380.17,548.06,380.17,545.76,378.53,544.34z"/>
	<polygon class="st9" points="328.76,417.28 375.61,457.81 389.95,445.4 353.41,413.78 	"/>
	<path class="st9" d="M216.04,465.23l7.93,17.38l17.73-17.93c0,0,17.25-15.96,19.21-17.94c1.96-1.99,47.97-35.52,47.97-35.52
		l-27.17,6.5l-26.15,15.21L216.04,465.23z"/>
	<g>
		<path class="st10" d="M174.86,577.41c81.54,35.29,174.04,35.29,255.58,0c0-12.48,0-24.96,0-37.44
			c-81.54,35.29-174.04,35.29-255.58,0C174.86,552.45,174.86,564.93,174.86,577.41z"/>
		<path class="st11" d="M174.86,577.41c81.54,35.29,174.04,35.29,255.58,0c0-12.48,0-24.96,0-37.44
			c-81.54,35.29-174.04,35.29-255.58,0C174.86,552.45,174.86,564.93,174.86,577.41z"/>
	</g>
	<g>
		<path class="st10" d="M391.06,515.18c31.86,7.38,68.01,20.2,99.87,0c0,11.3,0,22.59,0,33.89c-31.86,16.56-68.01,11.02-99.87,0
			C391.06,537.78,391.06,526.48,391.06,515.18z"/>
		<path class="st11" d="M391.06,515.18c31.86,7.38,68.01,20.2,99.87,0c0,11.3,0,22.59,0,33.89c-31.86,16.56-68.01,11.02-99.87,0
			C391.06,537.78,391.06,526.48,391.06,515.18z"/>
	</g>
	<g>
		<path class="st10" d="M114.38,515.18c31.86,7.38,68.01,20.2,99.87,0c0,11.3,0,22.59,0,33.89c-31.86,16.56-68.01,11.02-99.87,0
			C114.38,537.78,114.38,526.48,114.38,515.18z"/>
		<path class="st11" d="M114.38,515.18c31.86,7.38,68.01,20.2,99.87,0c0,11.3,0,22.59,0,33.89c-31.86,16.56-68.01,11.02-99.87,0
			C114.38,537.78,114.38,526.48,114.38,515.18z"/>
	</g>
	<path class="st12" d="M66.27,175.36h469.48l2.81,443.01l-6.76,13.34c0,0-10.55,12.29-10.95,13.34
		c-0.41,1.05-16.23,10.53-16.23,10.53l-14.2,4.91H358.57c0,0-15.01,4.21-16.23,4.91s-16.63,9.83-16.63,9.83l-11.36,15.09
		l-13.2,28.14l-9.55-15.63l-7.84-13.81l-17.68-20.47l-21.26-7.15l-126.41-2.33l-17.85-4.21l-14.2-9.83l-13.79-14.04l-6.29-13.34
		V175.36z"/>
	<path class="st13" d="M68.15,618.06l468.92-1.1v1.58l-6.39,12.29l-11.02,13.75l-15.62,9.95l-13.93,4.8H365.43H358l-15.34,4.42
		l-18.2,10.91l-11.22,15.8l-12.46,26.38l-16.14-27.9l-7.91-9.83l-10.14-11.7c0,0-19.87-6.2-21.23-6.55
		c-1.17-0.3-40.03-1.23-40.03-1.23l-87.26-1.71l-17-4.22l-13.44-9.3l-13.64-13.73L68.15,618.06z"/>
</g>
</svg>
