<?xml version="1.0" encoding="utf-8"?>
<!-- Generator: Adobe Illustrator 28.0.0, SVG Export Plug-In . SVG Version: 6.00 Build 0)  -->
<svg version="1.1" id="Слой_1" xmlns="http://www.w3.org/2000/svg" xmlns:xlink="http://www.w3.org/1999/xlink" x="0px" y="0px"
	 viewBox="0 0 595.3 841.9" style="enable-background:new 0 0 595.3 841.9;" xml:space="preserve">
<style type="text/css">
	.st0{fill:#6D6D6C;stroke:#FFFFFF;stroke-width:11;stroke-miterlimit:10;}
	.st1{fill:#FFFFFF;stroke:#FFFFFF;stroke-width:11;stroke-miterlimit:10;}
	.st2{fill:#FFFFFF;stroke:#FFFFFF;stroke-width:10.9995;stroke-miterlimit:9.9996;}
</style>
<g>
	<ellipse class="st0" cx="298" cy="397.4" rx="283.5" ry="283.5"/>
	<rect x="274.8" y="290.3" class="st1" width="46.1" height="203.5"/>
	<polygon class="st1" points="421.6,290.1 450.2,324 339.3,405.9 310.8,372 	"/>
	<polygon class="st2" points="463.4,464.7 434.9,503.2 310.8,420.4 339.3,381.9 	"/>
	<path class="st1" d="M267.3,447.2l-36.6-24.4c-0.4-0.3-0.8-0.5-1-0.9L205.5,391c-0.2-0.3-0.4-0.7-0.6-0.9l-13.6-34
		c0-0.2-0.2-0.3-0.2-0.5l-8.3-34.3v-0.2L172.2,287c-0.6-1.7-2.4-2.9-4.7-2.9h-34.8c-2.8,0-5.1,2.1-4.7,4.5l6.3,42.3
		c0,0.2,0,0.3,0.2,0.5l19.3,66.7c0,0.2,0.2,0.5,0.4,0.7l27.2,49.6c0.2,0.2,0.2,0.3,0.4,0.7c2.6,3.1,25.4,30.3,28.9,33.8
		c2.8,2.8,26,10.2,30.7,11.6c0.6,0.2,1,0.2,1.6,0.2H262c2.4,0,12.8,0.7,12.8-1.4l-5.9-42.5C269.2,449.2,268.5,448,267.3,447.2z"/>
</g>
</svg>
