<?xml version="1.0" encoding="utf-8"?>
<!-- Generator: Adobe Illustrator 28.0.0, SVG Export Plug-In . SVG Version: 6.00 Build 0)  -->
<svg version="1.1" id="Слой_1" xmlns="http://www.w3.org/2000/svg" xmlns:xlink="http://www.w3.org/1999/xlink" x="0px" y="0px"
	 viewBox="0 0 595.28 841.89" style="enable-background:new 0 0 595.28 841.89;" xml:space="preserve">
<style type="text/css">
	.st0{fill:#C4C4C4;}
	.st1{fill:none;stroke:#000000;stroke-width:3;stroke-miterlimit:10;}
</style>
<g>
	<ellipse class="st0" cx="297.64" cy="420.94" rx="174.5" ry="183.5"/>
	<path class="st1" d="M231.84,471.09h131.6c5.64,0,10.2-4.57,10.2-10.2V381c0-5.64-4.57-10.2-10.2-10.2h-131.6
		c-5.64,0-10.2,4.57-10.2,10.2v79.89C221.63,466.53,226.2,471.09,231.84,471.09z"/>
	<path class="st1" d="M231.84,408.19h131.6c5.64,0,10.2-4.57,10.2-10.2V381c0-5.64-4.57-10.2-10.2-10.2h-131.6
		c-5.64,0-10.2,4.57-10.2,10.2v16.98C221.63,403.62,226.2,408.19,231.84,408.19z"/>
	<path class="st1" d="M272.11,371.37h51.06c5.64,0,10.2-4.57,10.2-10.2v0c0-5.64-4.57-10.2-10.2-10.2h-51.06
		c-5.64,0-10.2,4.57-10.2,10.2v0C261.9,366.81,266.47,371.37,272.11,371.37z"/>
	<path class="st1" d="M295.35,418.39h4.57c5.64,0,10.2-4.57,10.2-10.2v0c0-5.64-4.57-10.2-10.2-10.2h-4.57
		c-5.64,0-10.2,4.57-10.2,10.2v0C285.15,413.82,289.72,418.39,295.35,418.39z"/>
</g>
</svg>
