<?xml version="1.0" encoding="utf-8"?>
<!-- Generator: Adobe Illustrator 28.0.0, SVG Export Plug-In . SVG Version: 6.00 Build 0)  -->
<svg version="1.1" id="Слой_1" xmlns="http://www.w3.org/2000/svg" xmlns:xlink="http://www.w3.org/1999/xlink" x="0px" y="0px"
	 viewBox="0 0 595.28 841.89" style="enable-background:new 0 0 595.28 841.89;" xml:space="preserve">
<style type="text/css">
	.st0{fill:#0B8036;stroke:#0B8036;stroke-miterlimit:10;}
	.st1{fill:none;stroke:#0B8036;stroke-miterlimit:10;}
</style>
<g>
	<path class="st0" d="M203.38,267.31c-0.51-0.7-1.03-1.4-1.55-2.09c-0.4,0.15-0.84,0.26-1.32,0.29c0.39,2.25-0.56,4.78-2.88,5.65
		l3.06,5.02l5.64-0.38c-0.26-1.85,0.38-3.85,1.93-4.96c-0.15-0.45-0.23-0.92-0.26-1.4C206.34,269.58,204.6,268.98,203.38,267.31z"/>
	<path class="st0" d="M230.55,252.38h-11.34l-2.58-3.32c-1.79,2.62-1.72,6.65-1.38,9.78c0.06,0.54-0.01,1.06-0.18,1.55
		c2.66,2.43,4.91,5.45,6.48,8.82c0.2-0.03,0.4-0.06,0.6-0.07c0.69-0.03,1.33,0.12,1.93,0.43c0.51,0.16,0.94,0.45,1.34,0.8
		c1.33-5.65,4.95-9.73,9.85-12.56l-0.56-3.93L230.55,252.38z"/>
	<path class="st0" d="M183.82,238.4c-0.09-0.17-0.16-0.33-0.23-0.5l-2.56-0.64c0,0,2.27,5.29,2.65,6.43c0.38,1.13,4.91,6.8,4.91,6.8
		l0.01,0.02c0.54-0.41,1.2-0.7,1.97-0.83C188.13,246.04,185.84,242.31,183.82,238.4z"/>
	<path class="st0" d="M221.74,191.31c-0.44-1.8,0.02-3.86,1.37-5.14l-1.63-1.45l-5.67,0.76l1.51,3.78l-0.1,3.67
		C218.75,192.44,220.26,191.89,221.74,191.31z"/>
	<path class="st0" d="M223.05,220.08c-0.17-0.38-0.35-0.73-0.51-1.12c-1.4-3.43-2.43-7.22-4.78-10.16
		c-0.07-0.08-0.11-0.17-0.17-0.25c-0.29-0.01-0.56-0.04-0.82-0.1l-0.22,7.65l-6.05-1.13l-1.89,4.91l-3.4-0.76l-3.4-2.27
		c0,0-1.51,1.13-1.51,2.65c0,1.51,3.4,8.32,3.4,8.32l-3.02,1.51l-2.65-4.54l-4.27-0.66c0.15,1.28-0.12,2.61-0.82,3.67
		c1.2,1.81,1.15,4.44-0.16,6.18c3.09,5.89,6.8,11.36,10.69,16.73c0.5-0.17,1.05-0.27,1.67-0.27c0.16,0,0.32,0.01,0.47,0.02
		c0.34-1.65,0.86-3.24,1.55-4.72c-0.98-2.69,0.21-6.25,3.53-6.83c0.8-1.06,2.06-1.79,3.8-1.79c0.19,0,0.35,0.03,0.53,0.04
		c0.14-0.2,0.29-0.39,0.47-0.56c0.45-0.49,0.99-0.83,1.61-1.03c0.6-0.31,1.24-0.46,1.93-0.43h0.28c0.15,0,0.31,0.02,0.46,0.03
		c0.22-0.23,0.46-0.44,0.73-0.63l0.6-11.63c0,0,0.42-0.12,1.07-0.29C222.25,221.7,222.55,220.82,223.05,220.08z"/>
	<path class="st0" d="M241.51,202.49l-6.73-5.97c-2.44,0.9-4.85,1.96-7.26,3c0.06,0.17,0.13,0.34,0.18,0.52
		c0.24,0.86,0.3,1.78,0.3,2.68c0,1-0.3,1.9-0.8,2.66c2.92,5.42,4.28,11.72,8.32,16.34c2.75-0.06,5.6-0.32,5.6-0.32l2.65-7.94
		L241.51,202.49z"/>
	<path class="st0" d="M517.25,680.87c-0.38,0.36-0.81,0.65-1.28,0.87c0.69,2.59-0.45,10.57-0.45,10.57l3.4,3.02l0.82-3.12
		C518.72,688.48,517.84,684.7,517.25,680.87z"/>
	<path class="st0" d="M536.69,584.34c0.43,0.4,0.74,0.89,0.99,1.42c0.37,0.28,0.66,0.63,0.92,1c0.21-0.02,0.43-0.04,0.66-0.04
		c0.36,0,0.7,0.04,1.02,0.1c0.66-0.19,1.33-0.36,2.01-0.48l-0.95-4.86c-0.77-0.39-1.37-0.96-1.79-1.65
		c-0.39,0.15-0.82,0.26-1.28,0.32c-0.36,0.05-0.72,0.1-1.09,0.15c-0.23,0.01-0.45-0.01-0.67-0.04l0.18,1.34V584.34z"/>
	<path class="st0" d="M538.38,546.39l-0.07-4.52c-0.42-0.34-0.76-0.75-1.04-1.21c-0.85-0.31-1.52-0.83-2.01-1.49
		c-0.75,0.18-1.5,0.37-2.24,0.59c-0.37,0.66-0.89,1.23-1.55,1.64c0.27,2.24,0.58,4.76,0.9,7.33c0.2,0.11,0.39,0.22,0.56,0.35
		c0.77-0.61,1.76-1.01,3.02-1.01c0.28,0,0.55,0.03,0.8,0.06C537.13,547.43,537.67,546.82,538.38,546.39z"/>
	<path class="st0" d="M537.75,561.76c-0.41,0-0.79-0.04-1.14-0.12c-0.26,1.32-0.98,2.54-2.19,3.25c0,0.03,0.01,0.06,0.01,0.06
		l0.55,4.06c0.44,0.21,0.86,0.47,1.2,0.84c0.11,0.1,0.19,0.22,0.28,0.33c0.24-0.03,0.48-0.06,0.72-0.1c0.02,0,0.04,0,0.06,0
		c0.56-0.71,1.33-1.26,2.33-1.52l-0.74-6.92C538.5,561.72,538.13,561.76,537.75,561.76z"/>
	<path class="st0" d="M541.06,599.74c-0.03,0-0.06,0-0.1,0c-1.25,0-2.26-0.38-3.03-0.99c-0.83,0.53-1.64,1.08-2.38,1.65l-2.26,14.81
		l-0.29,7.63c0.7,0.9,1.06,2.05,1.07,3.2c0.68,0.04,1.33,0.21,1.94,0.52c0.19-0.1,0.4-0.19,0.61-0.27c0.43-0.77,1.06-1.43,1.9-1.84
		l0.44-2.05l4.17-20.56C542.18,601.38,541.5,600.62,541.06,599.74z"/>
	<path class="st0" d="M533.93,638.34c-0.24-0.46-0.38-0.96-0.42-1.48c-0.88-0.21-1.76-0.42-2.64-0.61l-2.88,2.4l-0.76,6.43
		c0,0-3.78,1.89-4.54,3.02c-0.68,1.02-0.14,11.44-0.02,13.59c1.53,0.34,3.04,0.74,4.56,1.15v-12.47l4.91-5.29l2.2-5.86
		C534.18,638.94,534.04,638.65,533.93,638.34z"/>
	<path class="st0" d="M528.81,673.58c-0.77-0.21-1.54-0.42-2.32-0.63c0,0.01,0,0.01,0,0.02c0.1,4.78,0.97,9.45,2.14,14.07l0.12-0.02
		l4.54-2.65l-3.78-7.18L528.81,673.58z"/>
	<path class="st0" d="M535.83,525.95c-0.59-0.2-1.09-0.51-1.51-0.89c-0.8-0.08-1.49-0.32-2.06-0.69c-0.63,0.32-1.35,0.53-2.21,0.53
		c0.03,0.22,0.05,0.44,0.04,0.67c-0.05,0.94-0.13,1.31-0.36,1.87c-0.06,0.21-0.13,0.41-0.21,0.61c0.14,0.62,0.29,1.27,0.43,1.91
		c0.12,0.05,0.25,0.1,0.36,0.15c1.67-0.5,3.37-0.91,5.08-1.24c-0.08-0.95,0.08-1.93,0.48-2.78L535.83,525.95z"/>
	<path class="st0" d="M529.13,471.59l-7.94-15.5v-9.45l4.16-3.78l-0.38-3.4l-10.58-12.09l0.38-11.34l4.16-4.16l9.19-16.58
		c-8.35-5.3-17.52-10.11-22.49-18.58l-5.61-5.28h-5.29l-3.4-7.18l-4.54-4.54l-3.02-6.8l0.76-17.76l-6.8-4.54l-5.29-6.8l-2.65-13.61
		l6.05,4.91l2.27-23.43l5.29-7.56h9.83l-5.29-14.36l-4.91-63.12l-3.4-3.4l5.29-7.18l6.8-4.54l-3.4-7.94l-25.7-3.78l-1.89,4.91
		l-6.8,0.38l0.38,6.43l-5.67-0.76l0.38-4.91l5.29-4.16l3.4-10.58l-2.27-15.5h-2.65l-1.89-2.27h-8.32l-1.13-7.56h6.43l6.8,6.05
		l1.13-15.12l4.91-4.91h4.54l6.8-3.78l6.43-6.8l2.27-3.4h3.4l0.38-11.72h-9.45l-2.65-4.16h-4.91V97.8l-0.38-4.54l-0.38-5.29
		l3.02-1.89c0,0-7.18-11.34-8.32-11.34s-7.18,7.18-7.18,7.18s-4.54,1.13-5.67,2.65c-1.13,1.51-3.02,7.56-3.02,7.56l-0.76,9.07
		l-4.91,3.78l7.94,5.29l0.76,4.16L430.49,108l-6.8,4.91l-21.54,16.63c0,0-20.03,16.25-20.41,14.36c-0.04-0.2-0.17-0.61-0.37-1.18
		c-3.61,1.41-6.3,3.71-8.47,6.8l0.91,3.08l-1.13,13.61l-7.94,1.7l-3.97,5.67l3.4,8.5l6.24,2.83l5.67,3.4l-0.57,8.5l-6.8,1.13
		l-5.1,1.13l-9.07-7.37l0.57,17.57l-6.8,6.24l-5.1,12.47c0,0-0.57,2.83-6.24,6.8c-5.67,3.97-9.07-0.57-9.07-0.57l-4.54-6.8
		l2.27-2.83l-4.54-4.54l-1.7,6.24l-10.77,9.07l-9.26,11.72l-2,14.36l-6.69-0.76l-6.05-3.78l-5.67,3.78l-7.18,0.38l1.89-3.02
		l1.51-3.4l-10.96-0.76c0,0-5.29,1.51-5.29,3.02c0,1.51,0.38,9.83,1.13,11.34c0.76,1.51,2.65,5.29,2.65,5.29l-4.91,4.16l-0.38-6.43
		l-4.54-1.13l-4.54,3.4l-0.38-4.16l5.29-3.4l0.38-3.4c0,0-4.16-0.38-5.29,0.38c-0.78,0.52-3.89,1.58-5.75,2.19
		c-0.26,0.2-0.55,0.39-0.88,0.56c-5.44,2.77-6.61,5.89-7.22,11.63c-0.56,5.3-1.5,10.18-4.59,14.63c-0.02,0.03-0.05,0.06-0.07,0.09
		l2.64,1.13l1.51,7.18l-3.02,3.4l-3.4,0.76l0.76,8.32l-10.58-3.02l-2.65,11.72l-12.47-4.16l-0.76,6.05l-1.13,15.87h-7.18
		l-9.45-10.96l-0.76-5.29l3.02-1.13l0.38-2.27c0,0-13.23-20.41-14.36-19.65s-5.29,4.91-5.29,4.91s-3.78,0.38-4.91-0.76
		s-6.43-5.67-6.8-4.54c-0.38,1.13-1.89,18.52-1.89,18.52l-15.87,6.8l-4.16-1.51l0.38-6.8l-20.41,0.76l-1.89,5.29h-3.4l-0.76-4.91
		l-9.45,10.96l4.54,16.63l3.4,5.29c0,0-2.65,2.65-1.89,3.78s-0.38-1.51,4.16,1.51c4.54,3.02,0.38,12.85,0.38,12.85l2.27,1.51
		l-1.89,7.56l-7.94,3.78l-0.76,15.87l-5.29,3.02l-10.96,8.69l1.51,5.67c0,0,4.16-0.25,4.54,4.22c0.38,4.47,0.76,25.64,1.13,27.53
		c0.38,1.89-2.65,10.96-2.65,10.96l1.13,3.78c0,0-2.27,6.8-1.89,7.94c0.38,1.13,3.4,3.78,3.4,5.29c0,1.51,0.76,5.67,0.76,5.67
		l2.27,3.02v6.05c0,0-4.54,1.89-4.91,3.4c-0.38,1.51-2.27,11.34-2.27,11.34l11.34,2.27h6.8l2.65,4.54c0,0,0,6.05-0.38,7.18
		c-0.38,1.13-0.76,3.78-0.76,3.78l3.02,0.38l4.54-1.13l3.02,5.67c0,0-0.38,8.69-0.38,10.2c0,1.51,2.27,6.05,2.27,6.05
		s1.51-1.89,2.27,0s-0.38,7.56-0.38,7.56l0.38,7.94l5.29,5.29c0,0,2.65,4.16,1.89,5.67c-0.76,1.51-3.4,9.45-3.4,9.45l-1.13,14.74
		l0.76,4.91l3.4,3.02l2.65,1.51l2.65-4.91l4.54-0.76l3.78,0.76l3.78-7.18l5.48,4.35c0.94-0.38,6.61-16.06,6.99-18.33
		c0.38-2.27,4.54-10.2,4.54-10.2l3.97-2.27h6.8l4.35,2.27l3.97,5.48v4.72c0,0-0.38,1.89,0,2.93c0.38,1.04,3.21,1.23,3.21,1.23
		l2.46-3.02l2.65-3.21c0,0,2.27,0.76,2.65,1.32c0.38,0.57,3.02,8.69,3.02,8.69s1.13,5.86,1.7,7.18c0.57,1.32,3.78,4.72,3.78,4.72
		v3.4h-4.91c0,0-5.67,2.08-5.48,3.21c0.19,1.13-0.57,3.97-0.57,5.86s0.38,5.1,0.38,5.1l3.59,1.7c0,0,1.7-0.38,2.46,1.7
		c0.76,2.08,0.57,3.78,0.57,5.67s2.65,7.37-0.38,9.07c-3.02,1.7-8.5,1.7-8.5,1.7l-6.8-0.94l-0.38-5.29l-0.19-2.83
		c0,0-3.02,3.21-3.21,4.35c-0.19,1.13-2.08,3.97-2.27,4.72s1.13,4.91-0.19,5.29c-1.32,0.38-7.75,3.02-7.75,3.02l-6.61,1.89h-3.59
		l-3.78-5.48c0,0-1.13-1.51-2.46-0.94c-1.32,0.57-3.4-1.32-3.4-1.32s-1.32,4.16-1.32,4.91c0,0.76,0.76,3.02,0,2.83
		s-3.97-1.13-5.86-0.76c-1.89,0.38-2.65,1.7-2.65,1.7s-3.4,0.57-3.4,1.13c0,0.57,0,3.59,0,3.59h-3.97l-3.59,0.94v3.97l3.59,2.46
		c0,0,1.51,3.02,1.13,4.54c-0.38,1.51-4.72,4.54-4.72,4.54s-0.57,8.32,0,9.45c0.57,1.13,2.83,4.91,2.83,4.91l0.38-9.07l3.02-7.18
		h3.02l-0.38,7.18c0,0,0,7.56-0.38,9.07c-0.38,1.51,0.38,8.69,0.38,8.69l0.76,8.32l-1.13,6.05c0,0-0.38,4.91-1.89,6.43
		c-1.51,1.51-3.78,1.13-3.78,3.02s-0.38,5.29-1.13,6.8c-0.76,1.51-5.29,4.16-5.29,4.16l-3.78,4.16l-3.4,4.54c0,0-3.4-1.89-3.4,0
		s-2.27,8.69-2.27,8.69s-7.94,5.67-9.07,6.8c-1.13,1.13-6.05,7.56-6.05,7.56l-3.4,2.27l-2.65-4.16l-7.18-1.89v-7.94l-5.29-6.05
		l-6.8,0.76l-13.98-16.63v-3.4l-2.65,1.13l-4.16,6.43c0,0-5.29-1.13-5.29,0c0,1.13,0,7.94,0,7.94l-2.27,3.02l4.54,6.8l9.83,5.29
		l9.83,3.4l7.56,1.51l2.27,12.47l5.67,6.05l6.8,4.16l7.94-1.89l5.29-4.54l4.54-3.02l6.43,1.89l9.07,0.38v5.29l10.96,1.89l2.65,5.29
		h4.54l6.8,3.4h11.72l12.47-8.69l5.67-3.78l3.02-4.54l7.94-10.2l4.16-1.89h9.83l3.02,3.78l2.65-1.89v-4.91l7.94,2.27l13.23,1.13
		l1.89-6.8l6.05-4.54l3.02-1.51l-4.16-6.05l1.13-20.79l6.05-10.2v-4.91l-2.65-6.43l-5.29-3.02l1.89-10.2l6.05-1.13l10.58-9.83
		l10.2-4.16l7.56,3.4l7.94-0.76l21.17,24.19l18.9,23.43l6.43-2.27h5.29c0,0,7.18,0,8.31,0.76c1.13,0.76,10.2,1.89,10.2,1.89v6.43
		l5.67,7.56l5.29,1.51l7.18-5.29l4.91-2.65v-5.67l11.72-14.74l3.78,1.13l2.65,5.29v13.61l4.16,6.05l-2.27,2.27l-0.76,7.56
		l0.76,18.52l2.27,4.54l-3.02,3.4c0,0-9.07-1.51-10.2-0.38c-1.13,1.13-6.05,13.98-6.05,13.98l4.54,6.05l6.8,7.18
		c0,0,2.27,4.91,2.27,6.05c0,1.13,0.76,7.94,0.76,7.94h1.89l5.67-8.31l15.12-1.13l3.4-5.29l4.54-1.13l3.78-10.96l3.4-4.54v-24.19
		l5.29-30.24l2.27-7.18L432,699.57l-0.76-26.91l3.02-12.09l-7.18-16.63l-7.94-17.76l-3.78-5.29l-2.27-18.9l-0.38-3.78l5.29,3.02
		l3.4,7.94c0,0,0.38,2.65,2.65,8.69s6.05,5.67,6.8,7.94c0.76,2.27,7.18,13.61,7.18,13.61l1.89,5.67l4.54,5.67l2.65,9.07l2.27,4.16
		l4.54,1.89l1.89,7.94l7.56,12.85l1.51-13.23l-1.89-5.29l10.2-0.38l2.27,3.78l-2.27-12.09c0,0-9.83-1.51-11.72-2.27
		s-7.56-7.94-7.56-7.94l-6.8-13.61l-0.38-11.72l9.45-1.89l5.29,0.38l-1.13-4.91l-13.98-9.45l-6.8-7.94l-5.29-3.4l-1.13-4.91
		l-3.4-1.13l-3.02-4.16l-3.78-3.78l-3.4-8.69l-4.54-7.56l-0.76-3.78l-9.45-7.18l-3.78-3.02l0.38-4.16h-4.16l-3.4,3.4l1.51,4.91
		l4.91,3.4l1.51,4.54v3.02h-3.78l-0.38,3.78c0,0,1.51,3.78,2.65,4.54c1.13,0.76,4.54,5.29,4.54,5.29s2.65,8.31,2.65,9.45
		c0,1.13-1.51,3.4-1.51,3.4l-6.05-3.4l1.13-8.31l-6.8-4.91l-9.45-2.65l-7.18,2.27l-5.67,4.91l-0.76,14.36l-3.78-0.38l-1.13-4.16
		l-3.78,3.78h-4.16l0.38-6.43l-3.02-5.29l-3.4,6.05l-3.4,2.65l-6.05-0.76l4.16-23.43l6.05-9.45l0.76-32.5l3.4-7.18v-6.8l-2.27-4.91
		l1.89-10.58l3.02-5.29l-2.27-6.05l2.27-5.67l14.36-17.01l4.16,2.65l3.4-0.38l-0.38-10.2l3.4-2.27l7.18-4.91h3.4l1.89-4.54
		l-1.51-9.45c0,0,6.8-2.27,7.94-3.02c1.13-0.76,6.05-6.8,6.05-6.8l1.13,3.02l-2.65,3.78l5.29,5.67c0,0,3.4-5.67,5.67-6.05
		c2.27-0.38,1.51-14.74,1.51-14.74l5.29-1.89l2.27-5.29l3.78-2.65l-6.05-7.56l-4.16,6.43l-2.27-1.51l-1.51-26.46l-3.02-10.58
		l0.38-12.85l5.29-8.69l4.16-1.89l1.89-5.67h3.02l0.38,5.67l6.43,5.67l4.54-1.89v-9.45l-2.27-10.96l3.4-6.8l-7.18-10.96l-0.38-10.58
		l4.16-2.27h3.02l-2.65,4.16l1.51,9.07l4.91,4.16l3.78,1.13l-1.51,5.67l4.16,3.02l-1.13,8.69c0,0-3.02,3.02-3.02,4.54
		c0,1.51,1.51,6.8,1.51,6.8s5.67,3.02,3.78,2.65s1.13,15.5,1.13,17.01c0,1.51,3.02,21.54,3.4,24.19c0.38,2.65,3.02,10.2,3.02,10.2
		l-5.29,1.89l0.76,6.43l-2.65,3.78l3.78,5.67l3.02,3.02l1.13,14.74c0,0,8.69,10.2,8.69,11.72c0,1.51,18.14,20.03,18.9,21.54
		c0.76,1.51,16.63,12.47,16.63,12.47l23.06,18.9v3.78l-1.51,5.67l-5.67-2.27c0,0-2.65,3.4-2.27,4.54c0.38,1.13,1.89,3.4,1.89,3.4
		s2.38,1.47,3.95,3.25c0.48,0,0.92,0.07,1.33,0.18c0.76-0.58,1.74-0.94,2.96-0.94c0.81,0,1.51,0.17,2.11,0.45
		c0.08-0.06,0.17-0.1,0.25-0.15c0.28-1.03,0.87-1.95,1.73-2.59c0.04-0.37,0.12-0.74,0.24-1.09l0.65-7.42l-3.78-10.58L529.13,471.59z
		"/>
	<path class="st0" d="M531.81,361.71l-1.17,0.28l-2.41,1.55c0.34,0.67,0.53,1.42,0.53,2.17v4.54c0,0.74-0.17,1.42-0.45,2.04
		c2.87,1.55,5.91,2.72,9.25,3.35c0.47,0.09,0.88,0.23,1.25,0.4l3.17-5.72l1.59-2.92C539.77,365.25,535.86,363.33,531.81,361.71z"/>
	<path class="st0" d="M546.52,352.54c-0.16,0.48-1.61,1.91-3.23,3.4c2.31,1.14,4.58,2.37,6.81,3.66l3.6-4.04v-3.02
		C553.7,352.54,546.9,351.4,546.52,352.54z"/>
	<path class="st0" d="M373.28,122.01c-0.39-0.96-0.62-1.53-0.62-1.53l1.51-11.34l3.78-4.54l-1.13-6.05l-4.16-3.02
		c0,0-7.56,0.76-7.94,2.27c-0.38,1.51-2.27,5.67-2.27,5.67l-1.13,6.8l6.49,22.04C369.22,128.68,371.09,125.23,373.28,122.01z"/>
</g>
<path class="st1" d="M-90.31,556.66l5.48,4.35c0.94-0.38,6.61-16.06,6.99-18.33"/>
</svg>
