<?xml version="1.0" encoding="utf-8"?>
<!-- Generator: Adobe Illustrator 28.0.0, SVG Export Plug-In . SVG Version: 6.00 Build 0)  -->
<svg version="1.1" id="Слой_1" xmlns="http://www.w3.org/2000/svg" xmlns:xlink="http://www.w3.org/1999/xlink" x="0px" y="0px"
	 viewBox="0 0 595.28 841.89" style="enable-background:new 0 0 595.28 841.89;" xml:space="preserve">
<style type="text/css">
	.st0{fill:#C4C4C4;}
	.st1{fill:none;stroke:#000000;stroke-width:5;stroke-miterlimit:10;}
	.st2{fill:none;stroke:#000000;stroke-width:3;stroke-miterlimit:10;}
</style>
<g>
	<ellipse class="st0" cx="297.64" cy="421.5" rx="174.5" ry="183.5"/>
	<path class="st1" d="M254.09,512.11h87.1c11.62,0,21.04-9.42,21.04-21.04V351.94c0-11.62-9.42-21.04-21.04-21.04h-87.1
		c-11.62,0-21.04,9.42-21.04,21.04v139.13C233.04,502.69,242.47,512.11,254.09,512.11z"/>
	<path class="st1" d="M256.23,512.11c-0.76-1.54-5.48-11.37-6.24-12.5s-1.32-11.34-1.32-11.91c0-0.57-0.19-12.09,0-13.42
		c0.19-1.32,3.74-9.45,3.74-9.45l3.82-5.48h7.56c0,0,4.91,0.57,5.48,1.7c0.57,1.13,2.46,6.43,2.83,8.13
		c0.38,1.7,3.02,19.28,3.02,20.03c0,0.76-3.21,13.61-3.21,13.61l-3.59,9.29"/>
	<path class="st2" d="M258.5,468.8c0,0-2.46,3.78-2.65,4.72c-0.19,0.94-1.89,7.56-2.27,8.88c-0.38,1.32-0.57,5.48,0,6.43
		c0.57,0.94,1.13,6.24,1.51,6.99c0.38,0.76,3.4,6.43,3.4,6.43"/>
	<path class="st1" d="M233.04,436.3c0,0,9.96-10.87,13.36-15.35c3.4-4.49,10.02-26.03,12.09-28.87s6.61-19.28,6.61-20.98
		c0-1.7-2.54-14.74-3.25-16.44c-0.71-1.7-6-14.74-6-14.74"/>
	<polyline class="st1" points="233.04,394.91 244.13,379.04 244.13,356.93 	"/>
	<path class="st1" d="M269.65,330.89c0,0,8.5,28.31,8.5,30.01c0,1.7-4.35,23.24-3.02,27.21c1.32,3.97-4.91,31.65-5.48,32.83
		s-0.57,13.65,0,17.62s4.04,13.04,4.04,13.04"/>
	<path class="st1" d="M278.15,330.89c2.83,2.79,10.77,22.64,11.34,26.04s3.97,23.81,3.97,23.81"/>
	<path class="st1" d="M293.46,391.25c1.7,1.4,4.39,22.94,4.18,24.64c-0.21,1.7,0,14.74,0,14.74"/>
	<path class="st1" d="M285.8,512.11c0,0,5.39-11.75,7.65-14.58c2.27-2.83,4.39-11.91,4.18-15.31c-0.21-3.4-3.1-15.31-5.91-18.14
		c-2.81-2.83-4.51-7.37-5.92-10.2c-1.42-2.83,0-11.34,0-11.34l-3.12-27.21"/>
	<path class="st1" d="M290.17,330.89l19.16,45.03c0,0,0,36,0,39.4c0,3.4-5.1,15.31-6.24,20.98s-0.57,21.17-0.57,23.06
		c0,1.89,3.4,21.17,3.4,21.17"/>
	<path class="st1" d="M299.75,509.43c2.78,2.68,14.68-17.01,14.68-17.01s4.54-9.07,4.54-15.31c0-6.24,1.7-20.41,0-25.51
		s0.76-18.71,0.76-18.71"/>
	<path class="st1" d="M317.27,402.28c1.7,1.7,14.74,19.22,14.74,19.22s-2.83,17.63,0,24.44c2.83,6.8,6.24,16.85,8.5,17.78
		s5.1,20.58,4.54,21.81c-0.57,1.23-4.54,12.57-3.97,14.27c0.57,1.7,9.92,9.89,9.92,9.89"/>
	<path class="st1" d="M362.07,349.34c0,0-11.93,30.83-11.07,31.4c0.86,0.57-3.69,6.8,0,14.17c3.69,7.37,3.65,17.01,4.8,20.41
		c1.15,3.4-5.66,19.28-4.8,20.98c0.86,1.7,0.86,13.04,2.56,15.31"/>
	<path class="st1" d="M353.02,334.53l-3.49,14.81c0,0-14.41,5.32-15.4,9.86c-0.99,4.54,0.42,17.57,0,19.28
		c-0.42,1.7,5.81,12.47,6.95,16.44s-1.7,9.94-1.7,16.03c0,6.08,4.02,21.96,4.02,21.96"/>
	<path class="st1" d="M324.07,330.89c0,0-10.2,23.24-6.8,24.92c3.4,1.68,9.07,10.75,9.64,15.29s-5.8,13.04-5.17,17.01
		c0.63,3.97,5.2,12.36,5.2,12.36"/>
</g>
</svg>
