<?xml version="1.0" encoding="utf-8"?>
<!-- Generator: Adobe Illustrator 28.0.0, SVG Export Plug-In . SVG Version: 6.00 Build 0)  -->
<svg version="1.1" id="Слой_1" xmlns="http://www.w3.org/2000/svg" xmlns:xlink="http://www.w3.org/1999/xlink" x="0px" y="0px"
	 viewBox="0 0 595.28 841.89" style="enable-background:new 0 0 595.28 841.89;" xml:space="preserve">
<style type="text/css">
	.st0{fill:#C4C4C4;}
	.st1{fill:none;stroke:#000000;stroke-width:5;stroke-miterlimit:10;}
</style>
<g>
	<ellipse class="st0" cx="297.56" cy="422.34" rx="174.5" ry="183.5"/>
	<path class="st1" d="M278.29,380.63c26.97,28.42-74.18,82.65-57.9,103.21c3.46,4.37,8.86,4.32,15.44,1.56
		c2.34-0.98,3.45-15.47,6.05-17.07c4-2.45,9.64,7.63,14.06,4.18c2.97-2.31,12.8-22.8,17.98-20.62c12.15,5.12,37.7-35.94,49.69-21.26
		c24.76,30.28,83.21-23.49,33.09-73.68C307.81,308,261.42,362.86,278.29,380.63z"/>
	<path class="st1" d="M330.49,383.61l20.26,22.43c9.81-8.86,8.73-26.28-2.38-38.58c-11.12-12.31-28.34-15.14-38.14-6.28
		c-0.03,0.03-0.06,0.05-0.08,0.08L330.49,383.61z"/>
</g>
</svg>
